<svg width="25" height="24" viewBox="0 0 25 24" fill="none" xmlns="http://www.w3.org/2000/svg">
<g id="Iconly/Bulk/Category">
<g id="Category">
<path id="Fill 1" opacity="0.4" d="M16.94 2H20.3169C21.7155 2 22.8487 3.14585 22.8487 4.55996V7.97452C22.8487 9.38864 21.7155 10.5345 20.3169 10.5345H16.94C15.5414 10.5345 14.4082 9.38864 14.4082 7.97452V4.55996C14.4082 3.14585 15.5414 2 16.94 2Z" fill="#161616"/>
<path id="Combined Shape" fill-rule="evenodd" clip-rule="evenodd" d="M5.43363 2H8.81059C10.2091 2 11.3424 3.14585 11.3424 4.55996V7.97452C11.3424 9.38864 10.2091 10.5345 8.81059 10.5345H5.43363C4.03509 10.5345 2.90186 9.38864 2.90186 7.97452V4.55996C2.90186 3.14585 4.03509 2 5.43363 2ZM5.43363 13.4655H8.81059C10.2091 13.4655 11.3424 14.6114 11.3424 16.0255V19.44C11.3424 20.8532 10.2091 22 8.81059 22H5.43363C4.03509 22 2.90186 20.8532 2.90186 19.44V16.0255C2.90186 14.6114 4.03509 13.4655 5.43363 13.4655ZM20.3169 13.4655H16.9399C15.5414 13.4655 14.4082 14.6114 14.4082 16.0255V19.44C14.4082 20.8532 15.5414 22 16.9399 22H20.3169C21.7154 22 22.8487 20.8532 22.8487 19.44V16.0255C22.8487 14.6114 21.7154 13.4655 20.3169 13.4655Z" fill="#161616"/>
</g>
</g>
</svg>
