<svg width="24" height="24" viewBox="0 0 24 24" fill="none" xmlns="http://www.w3.org/2000/svg">
<g id="Iconly/Bulk/Notification">
<g id="Notification">
<path id="Path_425-2" d="M3.50028 13.9124V13.7079C3.5352 13.0531 3.74185 12.4187 4.09974 11.8677C4.6965 11.1991 5.10675 10.3869 5.28971 9.51192C5.33445 8.84518 5.28971 8.16066 5.33445 7.48503C5.65655 4.24024 8.86857 2 11.9464 2H12.0359C15.1674 2 18.2989 4.24024 18.6389 7.48503C18.7015 8.15177 18.6389 8.84518 18.6926 9.51192C18.8711 10.3884 19.2819 11.2017 19.8825 11.8677C20.256 12.4124 20.4697 13.0495 20.4999 13.7079V13.9124C20.5054 14.7993 20.1876 15.6582 19.6052 16.3304C18.858 17.1274 17.8424 17.624 16.751 17.7261C13.5642 18.135 10.3376 18.135 7.15072 17.7261C6.07207 17.6157 5.07052 17.1197 4.33237 16.3304C3.76823 15.6518 3.4724 14.7921 3.50028 13.9124Z" fill="#5E17EB"/>
<path id="Path_426" opacity="0.4" d="M13.1632 19.0952C12.528 19.0507 12.009 19.0952 11.4901 19.0952C10.9755 19.0863 10.4617 19.14 9.96015 19.2552C9.53068 19.353 9.06543 19.5841 9.06543 20.073C9.11049 20.5456 9.36667 20.9731 9.76331 21.2376C10.5274 21.8211 11.4902 22.0858 12.4475 21.9755C13.3779 21.9069 14.2284 21.4273 14.7648 20.6687C15.0612 20.2844 14.9936 19.735 14.6127 19.433V19.433V19.433C14.1616 19.2125 13.6659 19.097 13.1632 19.0952Z" fill="#5E17EB"/>
</g>
</g>
</svg>
